<?xml version="1.0" encoding="utf-8"?>
<!-- Generator: Adobe Illustrator 17.1.0, SVG Export Plug-In . SVG Version: 6.00 Build 0)  -->
<!DOCTYPE svg PUBLIC "-//W3C//DTD SVG 1.1//EN" "http://www.w3.org/Graphics/SVG/1.1/DTD/svg11.dtd">
<svg version="1.1" id="Layer_1" xmlns="http://www.w3.org/2000/svg" xmlns:xlink="http://www.w3.org/1999/xlink" x="0px" y="0px"
	 viewBox="0 0 330.4 130.4" style="enable-background:new 0 0 330.4 130.4;" xml:space="preserve">
<g>
	<g>
		<path style="fill:#3C3C3B;" d="M10.2,10.1h10.4l4,16.2l3.8-16.2l10.4,0l0,24h-6.2l0.3-20.1L27.1,34h-5.9l-5.4-20.3L15.9,34h-5.7
			V10.1z"/>
		<path style="fill:#3C3C3B;" d="M50.9,40.3h-5.8l2.3-5.8l-6.9-17.2h6.7l3.3,11.6l3.6-11.6h5.8L50.9,40.3z"/>
		<path style="fill:#3C3C3B;" d="M70,17.4h6.3l2.7,11.8L82,17.4h6.9l2.9,11.7l2.9-11.7h5.5L95.1,34h-6.9l-3-11.6L81.9,34h-6.8
			L70,17.4z"/>
		<path style="fill:#3C3C3B;" d="M110.4,16.8c5.4,0,9.6,2.7,9.6,8.6c0,2.4-0.7,4.9-2.4,6.6c-1.4,1.4-3.4,2.4-6.8,2.4
			c-3.7,0-6-0.9-7.7-2.5c-1.9-1.8-2.4-4.3-2.4-6.3C100.7,20.5,103.8,16.8,110.4,16.8z M107.9,29.6c0.7,1.3,1.8,1.3,2.4,1.3
			c2.7,0,3.2-2.9,3.2-5.3c0-2.9-0.7-5.3-3.2-5.3c-2.7,0-3.3,2.8-3.3,5.3C107.1,26.7,107.2,28.4,107.9,29.6z"/>
		<path style="fill:#3C3C3B;" d="M122.8,20.9l-0.2-3.5h6l0.1,3.4c1.4-3.7,4.4-3.6,5.8-3.6v5.3c-0.7-0.1-0.9-0.1-1.3-0.1
			c-3.8,0-4.3,2.7-4.3,4.5V34h-6.2V20.9z"/>
		<path style="fill:#3C3C3B;" d="M136.7,10.1h6.2V34h-6.2V10.1z"/>
		<path style="fill:#3C3C3B;" d="M164.5,10.1v19.8c0,1.4,0.1,2.8,0.2,4.1h-5.9l-0.1-2.5c-0.7,1-1.9,2.9-5.6,2.9
			c-5.7,0-7.3-4.6-7.3-8.7c0-3.5,1-5.2,2.1-6.4c1.5-1.6,3.4-2.3,5.4-2.3c2.8,0,4,1.2,5,2.3v-9.2H164.5z M158.4,25.6
			c0-2.8-0.9-5-3.1-5c-2.8,0-3.1,3.5-3.1,5.1c0,1.6,0.3,5,3.1,5C157.5,30.7,158.4,28.5,158.4,25.6z"/>
		<path style="fill:#3C3C3B;" d="M168.2,29.1h5.8V34h-5.8V29.1z"/>
		<path style="fill:#3C3C3B;" d="M188.2,10.1h10.4l4,16.2l3.8-16.2l10.4,0l0,24h-6.2l0.3-20.1L205.1,34h-5.9l-5.4-20.3l0.2,20.3
			h-5.7V10.1z"/>
		<path style="fill:#3C3C3B;" d="M228.9,40.3h-5.8l2.3-5.8l-6.9-17.2h6.7l3.3,11.6l3.6-11.6h5.8L228.9,40.3z"/>
		<path style="fill:#3C3C3B;" d="M248,17.4h6.3l2.7,11.8l2.9-11.8h6.9l2.9,11.7l2.9-11.7h5.5L273,34h-6.9l-3-11.6L259.8,34H253
			L248,17.4z"/>
		<path style="fill:#3C3C3B;" d="M289.9,34c-0.1-0.6-0.2-1.3-0.2-2.4c-0.8,1.1-2,2.7-5.4,2.7c-4.1,0-5.8-2.2-5.8-5.2
			c0-4.5,4.2-6.2,11.3-5.9c0-1.8-0.2-3.4-2.1-3.4c-1.2,0-2.2,0.6-2.2,2.5h-5.9c0-0.8,0-2.2,1.3-3.5c1.3-1.3,3.9-2.1,6.9-2.1
			c1.5,0,4.7,0.2,6.4,1.9c1.1,1,1.5,2.6,1.5,4.4v7.8c0,1.2,0,1.5,0.3,3.2H289.9z M284.6,28.6c0,1.2,0.8,2.3,2.3,2.3
			c0.7,0,1.8-0.3,2.4-1.6c0.5-1.1,0.5-2.4,0.5-3.1C287.1,26.2,284.6,26.2,284.6,28.6z"/>
		<path style="fill:#3C3C3B;" d="M306.7,40.3h-5.8l2.3-5.8l-6.9-17.2h6.7l3.3,11.6l3.6-11.6h5.8L306.7,40.3z"/>
		<path style="fill:#3C3C3B;" d="M316,29.1h5.8V34H316V29.1z"/>
	</g>
	<g>
		<path style="fill:#FFDD00;" d="M163,50.9h18.7l6.3,49.3L199,50.9h23l10,48.9l6.3-48.9h17l-11.6,67.7h-22.5l-11.7-50.2L197,118.6
			h-22.4L163,50.9z"/>
		<path style="fill:#FFDD00;" d="M276.3,50.9v40.2c0,3.7,0.3,7.4,2.2,10.2c2.5,3.8,6.9,5.5,11.5,5.5c11.9,0,13.5-9.7,13.5-16.4V50.9
			h18.3v39.2c0,7.5-1,15.7-5.3,20.6c-6.6,8.1-18.7,9.7-27.2,9.7c-32,0-32.1-19.9-32.1-30.9l0.1-38.5H276.3z"/>
	</g>
	<g>
		<path style="fill:#3C3C3B;" d="M39.6,50.9h-8.2c-1.8,0-3.7,1.4-4.2,3.2L8.8,115.7c-0.5,1.6,0.5,2.9,2.2,2.9h6.2l16-58.3l15,55.1
			c0.5,1.8,2.4,3.2,4.2,3.2H59l16.9-58.3l14.5,55.4c0.4,1.6,2.1,2.9,3.8,2.9h7L82,50.9h-8.2c-1.8,0-3.7,1.4-4.2,3.2l-15,51.8
			L39.6,50.9z"/>
		<path style="fill:#3C3C3B;" d="M98.9,50.9l20,33.2L138,52.7c0.6-1,2-1.8,3.2-1.8h8.4l-26.4,41.5v26.2H117c-1.8,0-3.3-1.5-3.3-3.3
			V92L89.4,54.2c-1.2-1.8-0.4-3.3,1.8-3.3H98.9z"/>
	</g>
</g>
</svg>
