<?xml version="1.0" encoding="utf-8"?>
<!-- Generator: Adobe Illustrator 18.1.0, SVG Export Plug-In . SVG Version: 6.00 Build 0)  -->
<svg version="1.1" id="Layer_1" xmlns="http://www.w3.org/2000/svg" xmlns:xlink="http://www.w3.org/1999/xlink" x="0px" y="0px"
	 viewBox="1 61 199 77" enable-background="new 1 61 199 77" xml:space="preserve">
<g>
	<g>
		<path fill="#FFFFFF" d="M6.7,66.1h6.3l2.4,9.8l2.3-9.8H24v14.5h-3.8l0.2-12.2l-3.5,12.1h-3.6L10,68.3l0.1,12.3H6.7V66.1z"/>
		<path fill="#FFFFFF" d="M31.3,84.4h-3.5l1.4-3.5L25,70.5H29l2,7l2.2-7h3.5L31.3,84.4z"/>
		<path fill="#FFFFFF" d="M42.9,70.5h3.8l1.6,7.1l1.8-7.1h4.2l1.8,7.1l1.8-7.1h3.3l-3.1,10h-4.2l-1.8-7l-2,7h-4.1L42.9,70.5z"/>
		<path fill="#FFFFFF" d="M67.3,70.2c3.3,0,5.8,1.6,5.8,5.2c0,1.5-0.4,3-1.5,4c-0.8,0.8-2.1,1.5-4.1,1.5c-2.2,0-3.6-0.5-4.7-1.5
			c-1.2-1.1-1.5-2.6-1.5-3.8C61.4,72.4,63.3,70.2,67.3,70.2z M65.8,77.9c0.4,0.8,1.1,0.8,1.5,0.8c1.6,0,1.9-1.8,1.9-3.2
			c0-1.8-0.4-3.2-1.9-3.2c-1.6,0-2,1.7-2,3.2C65.3,76.2,65.4,77.2,65.8,77.9z"/>
		<path fill="#FFFFFF" d="M74.8,72.7l-0.1-2.1h3.6l0.1,2.1c0.8-2.2,2.7-2.2,3.5-2.2v3.2c-0.4-0.1-0.5-0.1-0.8-0.1
			c-2.3,0-2.6,1.6-2.6,2.7v4.3h-3.8L74.8,72.7L74.8,72.7z"/>
		<path fill="#FFFFFF" d="M83.2,66.1H87v14.5h-3.8V66.1z"/>
		<path fill="#FFFFFF" d="M100.1,66.1v12c0,0.8,0.1,1.7,0.1,2.5h-3.6l-0.1-1.5c-0.4,0.6-1.2,1.8-3.4,1.8c-3.5,0-4.4-2.8-4.4-5.3
			c0-2.1,0.6-3.1,1.3-3.9c0.9-1,2.1-1.4,3.3-1.4c1.7,0,2.4,0.7,3,1.4v-5.6C96.3,66.1,100.1,66.1,100.1,66.1z M96.4,75.5
			c0-1.7-0.5-3-1.9-3c-1.7,0-1.9,2.1-1.9,3.1c0,1,0.2,3,1.9,3C95.8,78.6,96.4,77.3,96.4,75.5z"/>
		<path fill="#FFFFFF" d="M102.3,77.6h3.5v3h-3.5V77.6z"/>
		<path fill="#FFFFFF" d="M114.4,66.1h6.3l2.4,9.8l2.3-9.8h6.3v14.5H128l0.2-12.2l-3.5,12.1h-3.6l-3.3-12.3l0.1,12.3h-3.5
			L114.4,66.1L114.4,66.1z"/>
		<path fill="#FFFFFF" d="M139,84.4h-3.5l1.4-3.5l-4.2-10.4h4.1l2,7l2.2-7h3.5L139,84.4z"/>
		<path fill="#FFFFFF" d="M150.6,70.5h3.8l1.6,7.1l1.8-7.1h4.2l1.8,7.1l1.8-7.1h3.3l-3.1,10h-4.2l-1.8-7l-2,7h-4.1L150.6,70.5z"/>
		<path fill="#FFFFFF" d="M176,80.6c-0.1-0.4-0.1-0.8-0.1-1.5c-0.5,0.7-1.2,1.6-3.3,1.6c-2.5,0-3.5-1.3-3.5-3.1
			c0-2.7,2.5-3.8,6.8-3.6c0-1.1-0.1-2.1-1.3-2.1c-0.7,0-1.3,0.4-1.3,1.5h-3.6c0-0.5,0-1.3,0.8-2.1c0.8-0.8,2.4-1.3,4.2-1.3
			c0.9,0,2.8,0.1,3.9,1.2c0.7,0.6,0.9,1.6,0.9,2.7v4.7c0,0.7,0,0.9,0.2,1.9H176z M172.8,77.3c0,0.7,0.5,1.4,1.4,1.4
			c0.4,0,1.1-0.2,1.5-1c0.3-0.7,0.3-1.5,0.3-1.9C174.3,75.9,172.8,75.9,172.8,77.3z"/>
		<path fill="#FFFFFF" d="M186.1,84.4h-3.5l1.4-3.5l-4.2-10.4h4.1l2,7l2.2-7h3.5L186.1,84.4z"/>
		<path fill="#FFFFFF" d="M191.8,77.6h3.5v3h-3.5V77.6z"/>
	</g>
	<g>
		<path fill="#FFDD00" d="M99.1,90.8h11.3l3.8,29.8l6.7-29.8h13.9l6.1,29.6l3.8-29.6H155l-7,41h-13.6l-7.1-30.4l-7.6,30.4h-13.6
			L99.1,90.8z"/>
		<path fill="#FFDD00" d="M167.7,90.8v24.3c0,2.2,0.2,4.5,1.3,6.2c1.5,2.3,4.2,3.3,7,3.3c7.2,0,8.2-5.9,8.2-9.9V90.8h11.1v23.7
			c0,4.5-0.6,9.5-3.2,12.5c-4,4.9-11.3,5.9-16.5,5.9c-19.4,0-19.4-12-19.4-18.7l0.1-23.3L167.7,90.8L167.7,90.8z"/>
	</g>
	<g>
		<path fill="#FFFFFF" d="M24.4,90.8h-5c-1.1,0-2.2,0.8-2.5,1.9L5.8,130c-0.3,1,0.3,1.8,1.3,1.8h3.8l9.7-35.3l9.1,33.4
			c0.3,1.1,1.5,1.9,2.5,1.9h4l10.2-35.3l8.8,33.5c0.2,1,1.3,1.8,2.3,1.8h4.2l-11.6-41h-5c-1.1,0-2.2,0.8-2.5,1.9l-9.1,31.4
			L24.4,90.8z"/>
		<path fill="#FFFFFF" d="M60.3,90.8l12.1,20.1l11.6-19c0.4-0.6,1.2-1.1,1.9-1.1H91l-16,25.1v15.9h-3.8c-1.1,0-2-0.9-2-2v-14.1
			L54.6,92.8c-0.7-1.1-0.2-2,1.1-2H60.3z"/>
	</g>
</g>
</svg>
