<?xml version="1.0" encoding="utf-8"?>
<!-- Generator: Adobe Illustrator 17.1.0, SVG Export Plug-In . SVG Version: 6.00 Build 0)  -->
<!DOCTYPE svg PUBLIC "-//W3C//DTD SVG 1.1//EN" "http://www.w3.org/Graphics/SVG/1.1/DTD/svg11.dtd">
<svg version="1.1" xmlns="http://www.w3.org/2000/svg" xmlns:xlink="http://www.w3.org/1999/xlink" x="0px" y="0px"
	 viewBox="0 0 1663.4 492" style="enable-background:new 0 0 1663.4 492;" xml:space="preserve">
<g id="Layer_1">
	<g>
		<path d="M1644.1,300.7c0,13.9-11.3,25.2-25.2,25.2H33.3c-13.9,0-25.2-11.3-25.2-25.2V38.2C8.1,24.2,19.4,13,33.3,13h1585.5
			c13.9,0,25.2,11.3,25.2,25.2V300.7z"/>
		<g>
			<polygon style="fill:#FFDD00;" points="62.3,52.3 99.2,52.3 108,117.8 108.3,117.8 118,52.3 160.7,52.3 170.3,117.8 170.6,117.8 
				179.5,52.3 216.4,52.3 193.9,156.4 149.1,156.4 139.5,89 139.2,89 129.5,156.4 84.8,156.4 			"/>
			<polygon style="fill:#FFDD00;" points="240.5,52.3 319.7,52.3 319.7,79.4 280,79.4 280,90.5 316.7,90.5 316.7,117.7 280,117.7 
				280,129.3 321,129.3 321,156.4 240.5,156.4 			"/>
			<path style="fill:#FFDD00;" d="M404.2,81.9c-0.2-6.5-3.8-8.7-9.1-8.7c-6.6,0-9.5,2.9-9.5,6.1c0,3.7,2.5,5.3,6.8,6.6
				c7.9,2.3,22.5,5.2,33,9.7c13.2,5.5,18.9,14.9,18.9,27.4c0,25.5-20.8,36.2-50.2,36.2c-25.1,0-48.2-7.8-48.2-34.9h39.5
				c0,2.9,0.6,5.8,2.2,8c1.6,2,4.2,3.3,8.1,3.3c6.1,0,10-3.9,10-8.5c0-3.9-3-5.9-6.9-7.1l-29.3-8.6c-16-4.8-21.6-14.5-21.6-27.9
				c0-21.6,17.5-33.9,47.9-33.9c26,0,45.5,8.1,45.5,32.3H404.2z"/>
			<polygon style="fill:#FFDD00;" points="492.3,80.3 466.7,80.3 466.7,52.3 559.3,52.3 559.3,80.3 533.6,80.3 533.6,156.4 
				492.3,156.4 			"/>
			<polygon style="fill:#FFDD00;" points="586.1,52.3 665.3,52.3 665.3,79.4 625.7,79.4 625.7,90.5 662.3,90.5 662.3,117.7 
				625.7,117.7 625.7,129.3 666.6,129.3 666.6,156.4 586.1,156.4 			"/>
			<path style="fill:#FFDD00;" d="M696.1,52.3h61.6c22.4,0,35.5,6.8,35.5,26.4c0,12-5.1,21-20.7,24.8v0.3
				c10.1,0.9,15.6,5.3,17.6,13.3c2.3,8.9,2,23.6,6.8,39.4h-40.4c-2.4-7.8-3.7-20.9-5.2-29.8c-0.8-5.2-3.5-7.2-10.1-7.2h-4.8v37
				h-40.4V52.3z M739.9,95.7c7.9,0,13.7-2.7,13.7-10.5c0-7.6-5.4-9.2-13.4-9.2h-3.7v19.7H739.9z"/>
			<polygon style="fill:#FFDD00;" points="824.5,52.3 874,52.3 896,115.4 896.3,115.4 896.3,52.3 929.8,52.3 929.8,156.4 
				880.3,156.4 858.2,93 857.9,93 857.9,156.4 824.5,156.4 			"/>
			<path style="fill:#FFDD00;" d="M443.4,246.3c0,25.1-18,37.7-49.5,37.7c-31.5,0-49.5-12.6-49.5-37.7v-69.2h41.3v67.5
				c0,8.2,3.9,11.4,8.2,11.4c4.3,0,8.2-3.2,8.2-11.4v-67.5h41.2V246.3z"/>
			<polygon style="fill:#FFDD00;" points="476.5,177.1 526,177.1 548,240.1 548.3,240.1 548.3,177.1 581.8,177.1 581.8,281.2 
				532.3,281.2 510.3,217.7 509.9,217.7 509.9,281.2 476.5,281.2 			"/>
			<rect x="615.6" y="177.1" style="fill:#FFDD00;" width="41.2" height="104.2"/>
			<path style="fill:#FFDD00;" d="M740.6,174.3c35.9,0,53.8,22.3,53.8,54.8c0,32.5-17.9,54.8-53.8,54.8c-35.9,0-53.8-22.4-53.8-54.8
				C686.8,196.7,704.7,174.3,740.6,174.3 M740.6,256.8c6.4,0,11.1-3.6,11.1-27.7c0-23.5-4.4-27.7-11.1-27.7
				c-6.6,0-11.1,4.2-11.1,27.7C729.5,253.2,734.3,256.8,740.6,256.8"/>
			<polygon style="fill:#FFDD00;" points="824.5,177.1 874,177.1 896,240.1 896.3,240.1 896.3,177.1 929.8,177.1 929.8,281.2 
				880.3,281.2 858.2,217.7 857.9,217.7 857.9,281.2 824.5,281.2 			"/>
			<g>
				<path style="fill:#FFDD00;" d="M1318.2,50.8h-17.6L1280.9,197h-0.6l-21.6-146.2h-95.2L1141.9,197h-0.6l-19.6-146.2h-82.4
					l50.2,232.3h99.8l21.5-150.5h0.7l21.5,150.5h99.8l5-23.2c-12.8-13.6-19.6-31.7-19.6-54.7V50.8z"/>
				<path style="fill:#FFFFFF;" d="M1318.2,50.8v154.4c0,22.9,6.8,41.1,19.6,54.7l45.1-209.1H1318.2z"/>
				<path style="fill:#FFDD00;" d="M1446.9,50.8v150.6c0,18.3-8.7,25.5-18.3,25.5c-9.7,0-18.4-7.1-18.4-25.5V50.8h-19.6l-46.4,214.9
					c18.8,15.6,47.3,23.6,84.4,23.6c70.1,0,110.4-28,110.4-84.1V50.8H1446.9z"/>
				<polygon style="fill:#FFDD00;" points="978.9,50.8 965.2,50.8 1014.5,283.2 1028.2,283.2 				"/>
				<polygon style="fill:#FFDD00;" points="1052,283.2 1065.7,283.2 1016.3,50.8 1002.6,50.8 				"/>
				<g>
					<path style="fill:#FFDD00;" d="M1566.7,61.9c-0.1-1.6-1-2.3-2.6-2.3c-1.2,0-2.5,0.6-2.5,2c0,1.7,1.5,1.9,2.8,2.2
						c2.3,0.6,5.8,1.3,5.8,4.3c0,3.8-3.3,5.1-6.6,5.1c-3.5,0-6-1.4-5.9-5.2h3.4c-0.1,1.7,0.9,2.9,2.6,2.9c1.3,0,3.1-0.4,3.1-2
						c0-1.8-2.2-1.9-3.5-2.3c-2.2-0.5-5.1-1.5-5.1-4.2c0-3.5,3.2-5.1,6.4-5.1c3,0,5.3,1.6,5.3,4.7H1566.7z"/>
					<path style="fill:#FFDD00;" d="M1582.5,72.9h-2.7l-4.1-13.2l0,0v13.2h-3.1V57.5h5.4l3.2,11.2h0l3.5-11.2h5.2v15.4h-3.1V59.7
						l0,0L1582.5,72.9z"/>
				</g>
			</g>
		</g>
	</g>
	<g>
		<path style="fill:#FFFFFF;" d="M250.3,403.9h0.2c4.1-4.5,9.6-7.6,17.5-7.6c5.8,0,13.4,4.1,14.4,9.8c6.3-6.7,11.7-9.8,19.6-9.8
			c5.8,0,13.4,4.1,14.4,9.8c0.8,3.9-0.2,8.2-1.1,12.3l-6.6,31.1h-15.4l6.6-31.1c1.1-5.6,0.9-11.8-6.7-11.8c-4.8,0-10,4.3-11.8,11.8
			l-6.6,31.1h-15.4l6.6-31.1c1.1-5.6,0.9-11.8-6.7-11.8c-4.8,0-10,4.3-11.8,11.8l-6.6,31.1h-15.4l11-51.6h15.3L250.3,403.9z"/>
		<path style="fill:#FFFFFF;" d="M344.5,451c-16.9,0-24.6-11.1-21.1-27.3c3.5-16.2,15.9-27.4,32.8-27.4c16.9,0,24.6,11.1,21.1,27.4
			C373.8,439.9,361.4,451,344.5,451z M346.7,440.7c9.5,0,12.9-8.8,14.6-17.1c1.7-8.2,2.1-17.1-7.4-17.1c-9.5,0-12.9,8.8-14.6,17.1
			C337.6,431.8,337.3,440.7,346.7,440.7z"/>
		<path style="fill:#FFFFFF;" d="M386.5,397.8h16.3l4.1,35h0.2l19.3-35h14.7l-29.7,51.6h-16.9L386.5,397.8z"/>
		<path style="fill:#FFFFFF;" d="M462.3,397.8l-11,51.6h-15.4l11-51.6H462.3z M467.6,375.2l-2.8,13.3h-16.5l2.8-13.3H467.6z"/>
		<path style="fill:#FFFFFF;" d="M487.6,403.8l0.1,0.3c4.2-4.7,9.7-7.8,17.5-7.8c5.1,0,14.3,3.8,14.6,11.3c0.1,3.2-0.3,6.5-0.7,8.2
			l-7.2,33.6h-15.4l6.6-31.1c1.1-5.6,0.9-11.8-6.7-11.8c-4.8,0-10,4.3-11.8,11.8l-6.6,31.1h-15.4l11-51.6h15.3L487.6,403.8z"/>
		<path style="fill:#FFFFFF;" d="M574,444.8c-2.6,12-8,25.2-30.6,25c-11.4,0-23.1-2.8-20.4-16.7h14.6c-0.8,4.6,3,6.4,7.2,6.4
			c11.7,0,13.6-10.7,14.6-18.2h-0.2c-4.3,5-10.1,7.1-16,7.1c-14,0-18.4-13.2-15.7-25.7c2.8-13.2,13.1-26.4,27.5-26.4
			c6.9,0,10.8,2.3,12.2,7.5h0.2l1.3-6H584L574,444.8z M550,438.1c8.4,0,11.8-8.6,13.2-15.3c1.6-7.6,1.9-16.2-6.5-16.2
			c-8.4,0-11.8,8.6-13.4,16.2C541.9,429.5,541.6,438.1,550,438.1z"/>
		<path style="fill:#FFFFFF;" d="M635.8,403.9h0.2c4.1-4.5,9.6-7.6,17.5-7.6c5.8,0,13.4,4.1,14.4,9.8c6.3-6.7,11.7-9.8,19.6-9.8
			c5.8,0,13.4,4.1,14.4,9.8c0.8,3.9-0.2,8.2-1.1,12.3l-6.6,31.1h-15.4l6.6-31.1c1.1-5.6,0.9-11.8-6.7-11.8c-4.8,0-10,4.3-11.8,11.8
			l-6.6,31.1h-15.4l6.6-31.1c1.1-5.6,0.9-11.8-6.7-11.8c-4.8,0-10,4.3-11.8,11.8l-6.6,31.1h-15.4l11-51.6H637L635.8,403.9z"/>
		<path style="fill:#FFFFFF;" d="M730,451c-16.9,0-24.6-11.1-21.1-27.3c3.5-16.2,15.9-27.4,32.8-27.4c16.9,0,24.6,11.1,21.1,27.4
			C759.3,439.9,746.9,451,730,451z M732.2,440.7c9.5,0,12.9-8.8,14.6-17.1c1.7-8.2,2.1-17.1-7.4-17.1c-9.5,0-12.9,8.8-14.6,17.1
			C723.1,431.8,722.7,440.7,732.2,440.7z"/>
		<path style="fill:#FFFFFF;" d="M791.4,403.8l0.1,0.3c4.2-4.7,9.7-7.8,17.5-7.8c5.1,0,14.3,3.8,14.6,11.3c0.1,3.2-0.4,6.5-0.7,8.2
			l-7.2,33.6h-15.4l6.6-31.1c1.1-5.6,0.9-11.8-6.7-11.8c-4.8,0-10,4.3-11.8,11.8l-6.6,31.1h-15.4l11-51.6h15.3L791.4,403.8z"/>
		<path style="fill:#FFFFFF;" d="M846.2,427.7c-1.4,6.7-1.8,13,6.1,13c5.3,0,8.4-2,10.9-6.7H877c-4,12.8-14.9,17-27,17
			c-17.7,0-22.7-10-19-27.2c3.3-15.5,14.9-27.5,30.6-27.5c9.7,0,17,3.3,19.4,12.3c0.8,2.9,0.9,6,0.6,9.3c-0.3,3.2-1,6.5-1.7,9.9
			H846.2z M866.3,417.5c1.2-5.7,0.8-10.9-6.7-10.9c-7.1,0-9.8,5.2-11.2,10.9H866.3z"/>
		<path style="fill:#FFFFFF;" d="M929.2,397.8h15.1l-41.1,71.3H888l10.7-19.5l-8.9-51.7h16.5l3.7,35.7h0.2L929.2,397.8z"/>
		<path style="fill:#FFFFFF;" d="M1009.7,383.9c-10.6-1.2-11.9,3.7-13.6,13.9h9.4l-2.2,10.3h-9.4l-8.8,41.3h-15.4l8.8-41.3h-7.7
			l2.2-10.3h7.7c2.7-14.7,6.1-24.2,22.8-24.2c2.8,0,5.6,0.3,8.3,0.7L1009.7,383.9z"/>
		<path style="fill:#FFFFFF;" d="M1027.3,451c-16.9,0-24.6-11.1-21.1-27.3c3.5-16.2,15.9-27.4,32.8-27.4c16.9,0,24.6,11.1,21.1,27.4
			S1044.2,451,1027.3,451z M1029.5,440.7c9.5,0,12.9-8.8,14.6-17.1c1.8-8.2,2.1-17.1-7.4-17.1s-12.9,8.8-14.6,17.1
			C1020.4,431.8,1020.1,440.7,1029.5,440.7z"/>
		<path style="fill:#FFFFFF;" d="M1089.5,397.8l-1.7,9.4h0.2c5-8.1,12-10.2,19.7-10l-2.9,13.7h-6.7c-2.6,0.2-6.3,1.6-8.3,3.8
			c-2.3,2.9-3.2,5.8-4,9.2l-5.4,25.6h-15.3l8.7-41.3c0.5-2.2,1.1-6.5,1.7-10.3H1089.5z"/>
		<path style="fill:#FFFFFF;" d="M1148.5,375.2h15.4l-6.1,28.6h0.2c3.8-4.3,10-7.5,15.4-7.5c16,0,21.3,13.5,18.3,27.4
			c-2.8,13.3-12.9,27.3-28,27.3c-6.7,0-11.9-2.8-14-8.8h-0.2c-0.5,2.5-1.2,4.8-2,7.3h-15.4c0.9-3.4,2-6.9,2.7-10.3L1148.5,375.2z
			 M1161.1,440.7c9.9,0,13-9.1,14.7-17.1c1.7-7.9,2.4-17.1-7.5-17.1c-8.3,0-13.2,10-14.7,17.1
			C1152.1,430.7,1152.8,440.7,1161.1,440.7z"/>
		<path style="fill:#FFFFFF;" d="M1213.2,427.7c-1.4,6.7-1.8,13,6.1,13c5.3,0,8.4-2,10.9-6.7h13.9c-4.1,12.8-14.9,17-26.9,17
			c-17.7,0-22.7-10-19-27.2c3.3-15.5,14.9-27.5,30.6-27.5c9.7,0,17,3.3,19.4,12.3c0.8,2.9,0.9,6,0.6,9.3c-0.3,3.2-1,6.5-1.7,9.9
			H1213.2z M1233.3,417.5c1.2-5.7,0.8-10.9-6.7-10.9c-7.1,0-9.8,5.2-11.2,10.9H1233.3z"/>
		<path style="fill:#FFFFFF;" d="M1264.9,397.8l2.2-10.2l16.6-5.6l-3.3,15.7h11.6l-2.2,10.3h-11.6l-5.1,24c-1.4,6.8-0.8,8.6,4.5,8.6
			c1.6,0,3.3-0.2,5-0.3l-1.9,9c-1.9,0.8-10.3,1.5-12.5,1.5c-12,0-13.3-6.3-10.9-17.5l5.4-25.4h-10.4l2.2-10.3H1264.9z"/>
		<path style="fill:#FFFFFF;" d="M1304.7,397.8l2.2-10.2l16.6-5.6l-3.3,15.7h11.6l-2.2,10.3H1318l-5.1,24c-1.4,6.8-0.8,8.6,4.5,8.6
			c1.6,0,3.3-0.2,5-0.3l-1.9,9c-1.9,0.8-10.3,1.5-12.5,1.5c-12,0-13.3-6.3-10.9-17.5l5.4-25.4h-10.4l2.2-10.3H1304.7z"/>
		<path style="fill:#FFFFFF;" d="M1347.9,427.7c-1.4,6.7-1.8,13,6.1,13c5.3,0,8.4-2,10.9-6.7h13.9c-4.1,12.8-14.9,17-26.9,17
			c-17.7,0-22.7-10-19-27.2c3.3-15.5,14.9-27.5,30.6-27.5c9.7,0,17,3.3,19.4,12.3c0.8,2.9,0.9,6,0.6,9.3c-0.3,3.2-1,6.5-1.7,9.9
			H1347.9z M1368,417.5c1.2-5.7,0.8-10.9-6.7-10.9c-7.1,0-9.8,5.2-11.2,10.9H1368z"/>
		<path style="fill:#FFFFFF;" d="M1408.7,397.8l-1.7,9.4h0.2c5-8.1,12-10.2,19.7-10l-2.9,13.7h-6.7c-2.6,0.2-6.3,1.6-8.3,3.8
			c-2.3,2.9-3.2,5.8-4,9.2l-5.4,25.6h-15.3l8.7-41.3c0.5-2.2,1.1-6.5,1.7-10.3H1408.7z"/>
	</g>
</g>
<g id="Layer_2" style="display:none;">
</g>
</svg>
